HIERARCHY
ROOT Hips
{
	OFFSET 0.000000 0.000000 0.000000
	CHANNELS 6 Xposition Yposition Zposition Xrotation Yrotation Zrotation
	JOINT LeftUpLeg_virtual
	{
		OFFSET 0.000000 0.000000 0.000000
		CHANNELS 3 Xrotation Yrotation Zrotation
		JOINT LeftUpLeg
		{
			OFFSET 10.205400 -3.823500 0.155100
			CHANNELS 3 Xrotation Yrotation Zrotation
			JOINT LeftLeg
			{
				OFFSET 0.708757 -12.982077 0.567790
				CHANNELS 3 Xrotation Yrotation Zrotation
				JOINT LeftFoot
				{
					OFFSET -0.708756 -10.717838 -2.184338
					CHANNELS 3 Xrotation Yrotation Zrotation
					JOINT LeftToeBase
					{
						OFFSET 0.108149 -7.191104 7.560241
						CHANNELS 3 Xrotation Yrotation Zrotation
						JOINT LeftToe_End
						{
							OFFSET 0.070230 0.081724 4.490308
							CHANNELS 3 Xrotation Yrotation Zrotation
							End Site
							{
								OFFSET 0 0 0
							}
						}
					}
				}
			}
		}
	}
	JOINT RightUpLeg_virtual
	{
		OFFSET 0.000000 0.000000 0.000000
		CHANNELS 3 Xrotation Yrotation Zrotation
		JOINT RightUpLeg
		{
			OFFSET -10.205400 -3.823500 0.005500
			CHANNELS 3 Xrotation Yrotation Zrotation
			JOINT RightLeg
			{
				OFFSET -0.708756 -12.982134 0.610632
				CHANNELS 3 Xrotation Yrotation Zrotation
				JOINT RightFoot
				{
					OFFSET 0.708754 -10.717769 -1.945823
					CHANNELS 3 Xrotation Yrotation Zrotation
					JOINT RightToeBase
					{
						OFFSET -0.108140 -7.191069 7.372968
						CHANNELS 3 Xrotation Yrotation Zrotation
						JOINT RightToe_End
						{
							OFFSET -0.070227 0.081735 4.479403
							CHANNELS 3 Xrotation Yrotation Zrotation
							End Site
							{
								OFFSET 0 0 0
							}
						}
					}
				}
			}
		}
	}
	JOINT Spine_virtual
	{
		OFFSET 0.000000 0.000000 0.000000
		CHANNELS 3 Xrotation Yrotation Zrotation
		JOINT Spine
		{
			OFFSET 0.000000 6.876099 0.125700
			CHANNELS 3 Xrotation Yrotation Zrotation
			JOINT Spine1
			{
				OFFSET 0.000000 5.730043 0.104720
				CHANNELS 3 Xrotation Yrotation Zrotation
				JOINT Spine1_split
				{
					OFFSET 0.000000 5.730043 0.104720
					CHANNELS 3 Xrotation Yrotation Zrotation
					JOINT Spine2
					{
						OFFSET 0.000000 5.730043 0.104720
						CHANNELS 3 Xrotation Yrotation Zrotation
						JOINT Neck_virtual
						{
							OFFSET 0.000000 0.000000 0.000000
							CHANNELS 3 Xrotation Yrotation Zrotation
							JOINT Neck
							{
								OFFSET 0.000000 10.314075 0.188496
								CHANNELS 3 Xrotation Yrotation Zrotation
								JOINT Head
								{
									OFFSET 0.000000 7.643700 -2.377400
									CHANNELS 3 Xrotation Yrotation Zrotation
									JOINT HeadTop_End
									{
										OFFSET 0.000000 43.788605 -13.619600
										CHANNELS 3 Xrotation Yrotation Zrotation
										End Site
										{
											OFFSET 0 0 0
										}
									}
								}
							}
						}
						JOINT LeftShoulder_virtual
						{
							OFFSET 0.000000 0.000000 0.000000
							CHANNELS 3 Xrotation Yrotation Zrotation
							JOINT LeftShoulder
							{
								OFFSET 2.196100 4.412489 0.087492
								CHANNELS 3 Xrotation Yrotation Zrotation
								JOINT LeftShoulder_split
								{
									OFFSET 2.196100 4.412489 0.087492
									CHANNELS 3 Xrotation Yrotation Zrotation
									JOINT LeftArm
									{
										OFFSET 8.771219 -2.981674 -0.026999
										CHANNELS 3 Xrotation Yrotation Zrotation
										JOINT LeftForeArm
										{
											OFFSET 8.512804 0.000000 -0.000000
											CHANNELS 3 Xrotation Yrotation Zrotation
											JOINT LeftHand
											{
												OFFSET 18.484802 0.000000 -0.000000
												CHANNELS 3 Xrotation Yrotation Zrotation
												End Site
												{
													OFFSET 0 0 0
												}
											}
										}
									}
								}
							}
						}
						JOINT RightShoulder_virtual
						{
							OFFSET 0.000000 0.000000 0.000000
							CHANNELS 3 Xrotation Yrotation Zrotation
							JOINT RightShoulder
							{
								OFFSET -2.196100 4.412496 0.070690
								CHANNELS 3 Xrotation Yrotation Zrotation
								JOINT RightShoulder_split
								{
									OFFSET -2.196100 4.412496 0.070690
									CHANNELS 3 Xrotation Yrotation Zrotation
									JOINT RightArm
									{
										OFFSET -8.771282 -2.981682 -0.094208
										CHANNELS 3 Xrotation Yrotation Zrotation
										JOINT RightForeArm
										{
											OFFSET -8.494598 0.000000 0.000000
											CHANNELS 3 Xrotation Yrotation Zrotation
											JOINT RightHand
											{
												OFFSET -18.483803 0.000000 0.000001
												CHANNELS 3 Xrotation Yrotation Zrotation
												End Site
												{
													OFFSET 0 0 0
												}
											}
										}
									}
								}
							}
						}
					}
				}
			}
		}
	}
}
MOTION
Frames: 9
Frame Time: 0.03333333
-56.555542 12.940016 9.432599 0.000000 0.000000 0.000000 3.221853 0.540901 -43.780293 -129.441101 -5.646185 4.051094 14.404321 -9.305843 1.408697 57.142131 -5.516684 35.599742 -8.731723 0.000013 0.000002 0.000000 0.000000 0.000000 3.221853 0.540901 -43.780293 -56.425275 -19.965162 -21.653604 119.677031 28.068773 4.138366 -28.258538 30.547010 -2.849576 -39.837512 0.000235 0.000096 0.000000 0.000000 0.000000 3.221853 0.540901 -43.780293 26.474242 -0.898583 -12.283307 4.544305 1.067062 -3.000537 0.000000 0.000000 0.000000 0.000000 0.000000 0.000000 4.469506 1.152583 -3.102268 -2.049343 1.250614 0.923243 -3.430782 19.437299 0.140226 0.000000 0.000000 0.000000 4.469506 1.152583 -3.102268 -0.738572 -20.006912 -16.433073 0.000000 0.000000 0.000000 -50.129258 35.122253 -5.603031 -0.000010 -67.864302 -0.000016 0.000000 0.000000 0.000000 4.469506 1.152583 -3.102268 0.572094 17.177632 -1.647699 0.000000 0.000000 0.000000 -40.220679 -36.620558 -13.906575 -0.000003 47.792838 -0.000002 0.000000 0.000000 0.000000 
-56.331581 13.675819 8.371666 0.000000 0.000000 0.000000 5.053361 0.360384 -45.706250 -135.766539 -5.046627 1.219137 29.171957 -3.747912 0.910758 49.590916 -4.460626 42.463675 -9.566084 0.000024 -0.000003 0.000000 0.000000 0.000000 5.053361 0.360384 -45.706250 -58.105819 -23.206698 -16.778421 114.385028 24.001780 3.029245 -28.870943 29.135927 1.896525 -37.574267 0.000222 0.000086 0.000000 0.000000 0.000000 5.053361 0.360384 -45.706250 25.481288 -2.833318 -12.421628 4.429971 0.562699 -3.087445 0.000000 0.000000 0.000000 0.000000 0.000000 0.000000 4.399098 0.647811 -3.172084 -1.978521 1.469751 0.973263 -2.886839 20.911707 0.815785 0.000000 0.000000 0.000000 4.399098 0.647811 -3.172084 0.465877 -18.467172 -14.809588 0.000000 0.000000 0.000000 -53.117326 32.371036 -6.476317 0.000045 -65.498236 0.000070 0.000000 0.000000 0.000000 4.399098 0.647811 -3.172084 0.420661 16.309606 -2.316474 0.000000 0.000000 0.000000 -40.918553 -42.271170 -17.103668 -0.000011 49.709799 -0.000002 0.000000 0.000000 0.000000 
-56.314339 14.502817 7.015884 0.000000 0.000000 0.000000 7.614642 -0.051293 -48.823008 -148.489979 -3.669400 -2.476023 55.116140 6.923638 0.030588 39.684526 -3.683137 49.337161 -11.086924 -0.000005 -0.000003 0.000000 0.000000 0.000000 7.614642 -0.051293 -48.823008 -60.539587 -27.138630 -11.391740 107.181152 19.122288 2.110605 -26.340903 26.640255 7.222482 -35.944301 0.000229 0.000079 0.000000 0.000000 0.000000 7.614642 -0.051293 -48.823008 25.003222 -5.069688 -11.681423 4.340290 -0.053009 -2.926342 0.000000 0.000000 0.000000 0.000000 0.000000 0.000000 4.326358 0.001580 -3.071865 -1.907615 1.651357 1.046746 -3.037800 21.624693 2.047956 0.000000 0.000000 0.000000 4.326358 0.001580 -3.071865 1.528341 -17.124229 -13.055606 0.000000 0.000000 0.000000 -56.910963 30.147683 -5.988709 0.000010 -62.567326 0.000006 0.000000 0.000000 0.000000 4.326358 0.001580 -3.071865 -0.280784 13.602707 -1.925092 0.000000 0.000000 0.000000 -41.602361 -46.076545 -18.868471 0.000021 51.752135 -0.000012 0.000000 0.000000 0.000000 
-56.380959 15.317646 5.448491 0.000000 0.000000 0.000000 10.555751 -0.637824 -52.228305 -160.798171 -0.805499 -4.415681 81.322220 18.545241 -0.775339 30.637418 -3.281763 47.325291 -15.404933 0.000061 0.000021 0.000000 0.000000 0.000000 10.555751 -0.637824 -52.228305 -63.670955 -31.507342 -7.142226 99.432644 14.579341 1.218251 -21.022520 24.808470 11.236599 -35.514457 0.000215 0.000078 0.000000 0.000000 0.000000 10.555751 -0.637824 -52.228305 24.815244 -7.391212 -10.501330 4.268277 -0.667216 -2.683782 0.000000 0.000000 0.000000 0.000000 0.000000 0.000000 4.264230 -0.670721 -2.969946 -1.865159 1.816232 1.098593 -3.836370 21.972985 3.501153 0.000000 0.000000 0.000000 4.264230 -0.670721 -2.969946 2.392734 -16.120998 -11.191397 0.000000 0.000000 0.000000 -60.835074 28.365557 -4.762373 0.000015 -59.974334 0.000038 0.000000 0.000000 0.000000 4.264230 -0.670721 -2.969946 -0.885395 10.812407 -1.433184 0.000000 0.000000 0.000000 -42.789646 -50.514399 -20.264753 -0.000012 53.767987 0.000007 0.000000 0.000000 0.000000 
-56.469971 16.273067 3.720526 0.000000 0.000000 0.000000 14.051926 -1.185251 -55.695101 -167.263355 4.418691 -6.098863 108.315674 28.122479 -0.449827 14.365329 -4.000610 39.126360 -20.870092 0.000037 0.000028 0.000000 0.000000 0.000000 14.051926 -1.185251 -55.695101 -69.310499 -34.728124 -5.072462 90.281557 10.410012 2.443687 -9.498017 25.109133 12.555670 -32.638462 0.000197 0.000068 0.000000 0.000000 0.000000 14.051926 -1.185251 -55.695101 24.837758 -9.880469 -9.063908 4.205514 -1.261789 -2.434699 0.000000 0.000000 0.000000 0.000000 0.000000 0.000000 4.214184 -1.329374 -2.877533 -1.858517 1.982566 1.100695 -5.029981 22.157559 5.060413 0.000000 0.000000 0.000000 4.214184 -1.329374 -2.877533 3.029238 -15.594215 -9.234395 0.000000 0.000000 0.000000 -64.766832 26.176113 -2.837111 0.000019 -57.078183 0.000020 0.000000 0.000000 0.000000 4.214184 -1.329374 -2.877533 -1.325208 7.928366 -1.159177 0.000000 0.000000 0.000000 -44.246761 -56.483400 -20.238904 0.000044 55.596681 -0.000048 0.000000 0.000000 0.000000 
-56.737686 17.573309 2.252289 0.000000 0.000000 0.000000 18.218983 -1.376875 -58.271226 -158.067011 16.362485 -16.592044 127.294359 44.759674 2.753954 -6.228283 -4.660055 33.442724 -26.394125 0.000026 0.000003 0.000000 0.000000 0.000000 18.218983 -1.376875 -58.271226 -78.236081 -34.606943 -7.402290 74.782881 9.740808 7.212795 15.264120 25.702941 10.737955 -30.421106 0.387505 -2.431872 0.000000 0.000000 0.000000 18.218983 -1.376875 -58.271226 25.220511 -12.632356 -7.552938 4.165100 -1.794366 -2.222887 0.000000 0.000000 0.000000 0.000000 0.000000 0.000000 4.182997 -1.913202 -2.791845 -1.967062 2.147587 1.007438 -6.424732 22.163117 6.526798 0.000000 0.000000 0.000000 4.182997 -1.913202 -2.791845 3.452482 -15.644388 -7.199474 0.000000 0.000000 0.000000 -68.283286 23.300965 -1.180851 0.000000 -53.459696 0.000003 0.000000 0.000000 0.000000 4.182997 -1.913202 -2.791845 -1.640237 5.009691 -1.013735 0.000000 0.000000 0.000000 -43.524988 -62.670722 -16.827899 0.000017 57.462969 -0.000013 0.000000 0.000000 0.000000 
-56.189674 19.366535 0.824656 0.000000 0.000000 0.000000 22.707474 -1.009523 -57.794226 -123.334720 25.183172 -28.692754 133.883428 59.602963 9.178604 -30.860512 4.540792 12.325392 -31.291969 0.000025 0.000001 0.000000 0.000000 0.000000 22.707474 -1.009523 -57.794226 -78.124353 -31.923652 -10.086309 49.480503 3.961746 9.485492 40.861108 26.373008 20.581530 -30.368285 3.620609 -8.311161 0.000000 0.000000 0.000000 22.707474 -1.009523 -57.794226 25.801924 -15.662285 -7.564903 4.149801 -2.215116 -2.142596 0.000000 0.000000 0.000000 0.000000 0.000000 0.000000 4.179185 -2.356004 -2.734703 -2.292588 2.342066 0.700640 -8.190893 22.035184 7.810792 0.000000 0.000000 0.000000 4.179185 -2.356004 -2.734703 3.594311 -16.601950 -5.146020 0.000000 0.000000 0.000000 -71.267683 19.758788 -0.642520 0.000023 -49.128441 0.000029 0.000000 0.000000 0.000000 4.179185 -2.356004 -2.734703 -1.646126 3.405816 -0.956103 0.000000 0.000000 0.000000 -38.300900 -67.495267 -9.016799 0.000025 58.357300 -0.000020 0.000000 0.000000 0.000000 
-54.783966 21.313820 1.181330 0.000000 0.000000 0.000000 25.988858 -0.903712 -53.736769 -70.144451 23.201937 -18.127203 133.131834 51.489808 6.729116 -75.611485 17.833537 2.833076 -35.026006 0.000030 0.000035 0.000000 0.000000 0.000000 25.988858 -0.903712 -53.736769 -81.661694 -31.476626 -13.984938 45.343625 5.659436 9.591036 35.227923 24.963016 19.964993 -6.375095 0.596165 -6.324681 0.000000 0.000000 0.000000 25.988858 -0.903712 -53.736769 26.276622 -16.816100 -10.204352 4.162776 -2.501162 -2.228745 0.000000 0.000000 0.000000 0.000000 0.000000 0.000000 4.203538 -2.631819 -2.716079 -2.893532 2.572140 0.118041 -10.509749 21.720753 8.898060 0.000000 0.000000 0.000000 4.203538 -2.631819 -2.716079 3.363932 -19.010194 -3.085416 0.000000 0.000000 0.000000 -73.713888 15.127009 -1.747022 0.000014 -43.251032 0.000027 0.000000 0.000000 0.000000 4.203538 -2.631819 -2.716079 -1.431350 3.188786 -0.921040 0.000000 0.000000 0.000000 -29.714335 -70.331462 1.956495 -0.000027 57.670866 0.000019 0.000000 0.000000 0.000000 
-54.583023 21.897758 1.438826 0.000000 0.000000 0.000000 28.032901 -1.052977 -51.233888 -44.462988 19.123420 2.934855 131.488737 24.589907 -0.152197 -100.864702 10.458527 11.919021 -38.041978 0.000052 0.000030 0.000000 0.000000 0.000000 28.032901 -1.052977 -51.233888 -90.611243 -31.310373 -17.545151 48.681125 7.800253 9.557151 27.365235 24.513108 19.011502 -0.345900 -0.000003 0.000009 0.000000 0.000000 0.000000 28.032901 -1.052977 -51.233888 27.451818 -15.957620 -11.026199 4.214985 -2.640240 -2.282643 0.000000 0.000000 0.000000 0.000000 0.000000 0.000000 4.255896 -2.730641 -2.686543 -3.674719 2.725900 -0.506361 -12.640455 21.023674 9.587800 0.000000 0.000000 0.000000 4.255896 -2.730641 -2.686543 2.937831 -22.757504 -1.068872 0.000000 0.000000 0.000000 -75.933638 11.953090 -2.042972 0.000006 -37.985073 -0.000004 0.000000 0.000000 0.000000 4.255896 -2.730641 -2.686543 -0.943771 4.100649 -0.742622 0.000000 0.000000 0.000000 -22.765801 -70.138379 10.342788 0.000015 56.330646 -0.000022 0.000000 0.000000 0.000000 
